# Blender 3.1.0
# www.blender.org
mtllib test.mtl
o Cube
v 1.000000 1.000000 -1.000000
v 1.000000 -1.000000 -1.000000
v 1.000000 1.000000 1.000000
v 1.000000 -1.000000 1.000000
v -1.000000 1.000000 -1.000000
v -1.000000 -1.000000 -1.000000
v -1.000000 1.000000 1.000000
v -1.000000 -1.000000 1.000000
v 1.000000 1.000000 1.000000
v -1.000000 1.000000 1.000000
v 1.000000 2.495940 1.000000
v -1.000000 2.495940 1.000000
v 1.000000 2.495940 -1.000000
v -1.000000 2.495940 -1.000000
v -1.000000 1.000000 -1.624762
v 1.000000 1.000000 -1.624762
v -1.000000 2.495940 -1.624762
v 1.000000 2.495940 -1.624762
v -1.446835 1.000000 1.000000
v -1.446835 1.000000 -1.000000
v -1.446835 2.495940 1.000000
v -1.446835 2.495940 -1.000000
v 1.000000 1.000000 2.085781
v -1.000000 1.000000 2.085781
v 1.000000 2.495940 2.085781
v -1.000000 2.495940 2.085781
vn -0.0000 -1.0000 -0.0000
vn -0.0000 -0.0000 1.0000
vn -1.0000 -0.0000 -0.0000
vn 1.0000 -0.0000 -0.0000
vn -0.0000 -0.0000 -1.0000
vn -0.0000 1.0000 -0.0000
vt 0.625000 0.500000
vt 0.375000 0.500000
vt 0.625000 0.750000
vt 0.375000 0.750000
vt 0.625000 0.250000
vt 0.125000 0.500000
vt 0.375000 0.250000
vt 0.625000 0.000000
vt 0.875000 0.750000
vt 0.625000 1.000000
vt 0.375000 1.000000
vt 0.375000 0.000000
vt 0.125000 0.750000
vt 0.625000 0.750000
vt 0.875000 0.750000
vt 0.625000 0.750000
vt 0.875000 0.750000
vt 0.625000 1.000000
vt 0.625000 0.500000
vt 0.625000 0.250000
vt 0.875000 0.500000
vt 0.625000 0.250000
vt 0.625000 0.500000
vt 0.625000 0.250000
vt 0.875000 0.500000
vt 0.625000 0.500000
vt 0.625000 1.000000
vt 0.625000 0.000000
vt 0.625000 0.250000
vt 0.625000 0.000000
vt 0.875000 0.750000
vt 0.625000 1.000000
vt 0.625000 0.250000
vt 0.875000 0.500000
vt 0.625000 0.750000
vt 0.875000 0.750000
vt 0.625000 1.000000
vt 0.625000 0.750000
vt 0.875000 0.750000
vt 0.625000 1.000000
s 0
usemtl Material
f 1/1/1 5/5/1 15/22/1 16/23/1
f 4/4/2 3/3/2 7/10/2 8/11/2
f 8/12/3 7/8/3 5/5/3 6/7/3
f 6/6/1 2/2/1 4/4/1 8/13/1
f 2/2/4 1/1/4 3/3/4 4/4/4
f 6/7/5 5/5/5 1/1/5 2/2/5
f 7/9/6 3/3/6 9/14/6 10/15/6
f 13/19/6 14/21/6 12/17/6 11/16/6
f 3/3/4 11/16/4 25/38/4 23/35/4
f 14/20/5 5/5/5 20/29/5 22/33/5
f 3/3/4 1/1/4 13/19/4 11/16/4
f 16/23/5 15/22/5 17/24/5 18/26/5
f 5/5/3 14/20/3 17/24/3 15/22/3
f 13/19/4 1/1/4 16/23/4 18/26/4
f 14/21/6 13/19/6 18/26/6 17/25/6
f 20/29/3 19/28/3 21/30/3 22/33/3
f 12/17/6 14/21/6 22/34/6 21/31/6
f 7/10/2 12/18/2 21/32/2 19/27/2
f 5/5/1 7/8/1 19/28/1 20/29/1
f 24/37/2 23/35/2 25/38/2 26/40/2
f 7/9/1 3/3/1 23/35/1 24/36/1
f 11/16/6 12/17/6 26/39/6 25/38/6
f 12/18/3 7/10/3 24/37/3 26/40/3
